<svg xmlns="http://www.w3.org/2000/svg" style="display:none">

  <symbol id="logo" viewBox="0 0 188 39"><title>Profiles Logo</title><path d="M56.442,29.412 L56.442,36.972 C56.442,37.98 55.938,38.484 54.93,38.442 L51.192,38.442 C50.142,38.484 49.638,37.98 49.638,36.972 L49.638,10.554 C49.638,9.504 50.142,9 51.192,9 L54.3,9 C55.056,9 55.434,9.294 55.434,9.882 L55.434,9.966 C57.24,9.084 58.962,8.664 60.516,8.664 C63.498,8.664 66.06,9.756 68.202,11.898 C70.344,14.04 71.436,16.56 71.436,19.5 C71.436,22.482 70.344,25.002 68.202,27.144 C66.06,29.244 63.498,30.294 60.432,30.294 C58.962,30.294 57.66,30 56.442,29.412 Z M64.674,19.5 C64.926,15.804 59.97,13.872 57.66,16.518 C56.862,17.316 56.484,18.282 56.484,19.5 C56.484,20.718 56.862,21.684 57.66,22.482 C58.458,23.28 59.424,23.658 60.6,23.658 C62.91,23.658 64.674,21.852 64.674,19.5 Z M79.248,30 L75.51,30 C74.46,30 73.956,29.496 73.956,28.488 L73.956,10.554 C73.956,9.504 74.46,9 75.51,9 L78.744,9 C79.29,9 79.584,9.21 79.584,9.63 L79.584,9.714 C80.718,9 82.146,8.664 83.826,8.664 L85.422,8.664 C86.388,8.664 86.976,9.294 86.976,10.302 L86.976,13.872 C86.976,14.88 86.472,15.384 85.422,15.342 L83.658,15.342 C82.104,15.342 80.802,16.56 80.76,18.198 L80.76,28.488 C80.802,29.496 80.298,30 79.248,30 Z M99.702,8.664 C102.642,8.664 105.162,9.714 107.262,11.856 C109.404,13.956 110.454,16.476 110.454,19.458 C110.454,22.482 109.404,25.044 107.262,27.186 C105.162,29.286 102.6,30.336 99.618,30.336 C96.594,30.336 94.032,29.286 91.89,27.186 C89.79,25.044 88.74,22.482 88.74,19.5 C88.74,16.518 89.79,13.956 91.89,11.856 C94.032,9.714 96.636,8.664 99.702,8.664 Z M99.576,15.384 C97.392,15.384 95.586,17.232 95.586,19.458 C95.586,21.768 97.392,23.574 99.618,23.574 C101.844,23.574 103.65,21.726 103.65,19.5 C103.65,17.19 101.802,15.384 99.576,15.384 Z M113.524,9 L114.784,9 L114.784,7.404 C114.826,3.078 117.22,0.768 121.084,0.768 L124.15,0.768 C125.2,0.768 125.704,1.272 125.704,2.28 L125.704,5.262 C125.704,6.312 125.2,6.816 124.15,6.774 L123.016,6.774 C122.05,6.774 121.546,7.278 121.546,8.244 L121.546,9 L125.41,9 C126.46,9 126.964,9.504 126.922,10.554 L126.922,13.662 C126.964,14.67 126.418,15.216 125.41,15.174 L121.546,15.174 L121.546,28.488 C121.588,29.496 121.084,30 120.034,30 L116.296,30 C115.246,30 114.742,29.496 114.784,28.488 L114.784,15.174 L113.524,15.174 C112.474,15.216 112.012,14.712 112.012,13.662 L112.012,10.554 C112.012,9.504 112.516,9 113.524,9 Z M134.118,1.23 C135.924,1.23 137.478,2.826 137.478,4.632 C137.646,7.53 133.656,9.252 131.724,7.026 C129.498,5.094 131.22,1.104 134.118,1.23 Z M136.008,30 L132.228,30 C131.22,30 130.716,29.496 130.716,28.488 L130.716,10.554 C130.716,9.504 131.22,9 132.228,9 L136.008,9 C137.016,9 137.52,9.504 137.52,10.554 L137.52,28.488 C137.52,29.496 137.016,30 136.008,30 Z M147.636,30 L143.856,30 C142.806,30 142.302,29.496 142.344,28.488 L142.344,2.28 C142.302,1.272 142.806,0.768 143.856,0.768 L147.636,0.768 C148.686,0.768 149.19,1.272 149.148,2.28 L149.148,28.488 C149.19,29.496 148.686,30 147.636,30 Z M170.526,21.642 L158.808,21.642 C159.018,23.28 161.118,24.498 163.428,24.498 C164.814,24.498 166.158,24.204 167.502,23.616 C167.796,23.448 168.048,23.364 168.258,23.364 C168.72,23.364 169.098,23.658 169.392,24.246 L170.526,26.178 C170.736,26.556 170.862,26.85 170.862,27.06 C170.862,27.564 170.484,28.026 169.728,28.446 C167.628,29.706 165.318,30.336 162.798,30.336 C159.648,30.336 157.002,29.286 154.86,27.228 C152.76,25.128 151.71,22.524 151.71,19.458 C151.71,16.476 152.76,13.914 154.86,11.814 C156.96,9.714 159.522,8.664 162.504,8.664 C168.384,8.664 172.038,12.864 172.038,19.71 C172.08,20.886 171.66,21.684 170.526,21.642 Z M158.934,17.148 L165.57,17.148 C165.528,15.762 164.352,14.544 162.378,14.544 C160.572,14.544 159.228,15.594 158.934,17.148 Z M180.984,30.336 C178.758,30.336 176.952,29.496 175.608,27.858 C174.81,26.892 174.432,26.178 174.432,25.632 C174.432,25.044 174.768,24.624 175.44,24.372 L177.708,23.448 C178.044,23.28 178.296,23.196 178.506,23.196 C178.758,23.196 179.094,23.364 179.514,23.7 C179.892,24.078 180.27,24.246 180.69,24.246 C181.152,24.246 181.362,23.994 181.362,23.532 C181.362,23.07 180.816,22.566 179.724,22.104 C176.322,20.466 174.6,18.198 174.6,15.258 C174.6,11.226 177.204,8.664 181.11,8.664 C183,8.664 184.554,9.336 185.856,10.68 C186.738,11.646 187.158,12.402 187.158,13.032 C187.158,13.578 186.822,13.998 186.108,14.292 L183.714,15.216 C183.378,15.3 183.126,15.342 182.958,15.342 C182.664,15.342 182.37,15.216 182.16,15.006 C182.034,14.796 181.782,14.67 181.488,14.67 C180.984,14.67 180.732,14.922 180.732,15.384 C180.732,15.888 181.404,16.35 183.924,17.82 C186.318,19.206 187.536,21.18 187.536,23.784 C187.536,25.59 186.906,27.144 185.604,28.446 C184.344,29.706 182.79,30.336 180.984,30.336 Z"></path>
  <path d="M32.55,10.85 C34.2580085,10.85 35.8399927,11.2769957 37.296,12.131 C38.7520073,12.9850043 39.8999958,14.1329928 40.74,15.575 C41.5800042,17.0170072 42,18.5919915 42,20.3 C42,22.0080085 41.5800042,23.5829928 40.74,25.025 C39.8999958,26.4670072 38.7520073,27.6149957 37.296,28.469 C35.8399927,29.3230043 34.2580085,29.75 32.55,29.75 C31.2899937,29.75 30.0790058,29.5050024 28.917,29.015 C27.7549942,28.5249976 26.7260045,27.8320045 25.83,26.936 L23.646,24.962 L26.25,22.694 L28.308,24.416 C29.512006,25.620006 30.9259919,26.222 32.55,26.222 C33.6420055,26.222 34.6359955,25.9560027 35.532,25.424 C36.4280045,24.8919973 37.1419973,24.1710045 37.674,23.261 C38.2060027,22.3509954 38.472,21.3640053 38.472,20.3 C38.472,19.2359947 38.2060027,18.2490046 37.674,17.339 C37.1419973,16.4289954 36.4280045,15.7080027 35.532,15.176 C34.6359955,14.6439973 33.6420055,14.378 32.55,14.378 C31.7659961,14.378 31.0170036,14.5249985 30.303,14.819 C29.5889964,15.1130015 28.9520028,15.5399972 28.392,16.1 C25.0879835,19.0120146 22.6240081,21.2099926 21,22.694 L16.086,27.02 C15.2179957,27.8880043 14.2100057,28.5599976 13.062,29.036 C11.9139943,29.5120024 10.7100063,29.75 9.45,29.75 C7.74199146,29.75 6.16000728,29.3230043 4.704,28.469 C3.24799272,27.6149957 2.1000042,26.4670072 1.26,25.025 C0.4199958,23.5829928 0,22.0080085 0,20.3 C0,18.5919915 0.4199958,17.0170072 1.26,15.575 C2.1000042,14.1329928 3.24799272,12.9850043 4.704,12.131 C6.16000728,11.2769957 7.74199146,10.85 9.45,10.85 C10.7100063,10.85 11.9209942,11.0949975 13.083,11.585 C14.2450058,12.0750024 15.2739955,12.7679955 16.17,13.664 L18.396,15.638 L15.666,17.906 L13.692,16.184 C12.487994,14.979994 11.0740081,14.378 9.45,14.378 C8.38599468,14.378 7.39900455,14.6439973 6.489,15.176 C5.57899545,15.7080027 4.85800266,16.4289954 4.326,17.339 C3.79399734,18.2490046 3.528,19.2359947 3.528,20.3 C3.528,21.3640053 3.79399734,22.3509954 4.326,23.261 C4.85800266,24.1710045 5.57899545,24.8919973 6.489,25.424 C7.39900455,25.9560027 8.38599468,26.222 9.45,26.222 C10.2340039,26.222 10.9829964,26.0750015 11.697,25.781 C12.4110036,25.4869985 13.0479972,25.0600028 13.608,24.5 C16.9120165,21.5879854 19.3759919,19.3900074 21,17.906 L25.914,13.58 C26.7820043,12.7119957 27.7899943,12.0400024 28.938,11.564 C30.0860057,11.0879976 31.2899937,10.85 32.55,10.85 Z"></path></symbol>

  <symbol id="search-icon" viewBox="0 0 15 15"><title>Search Icon</title>
    <path d="M10.7407407,9.44444444 L15,13.7037037 L13.7037037,15 L9.44444444,10.7201646 L9.44444444,10.0411523 L9.19753086,9.81481481 C8.71741872,10.240057 8.16529805,10.5658425 7.54115226,10.7921811 C6.91700648,11.0185197 6.26886481,11.1316872 5.59670782,11.1316872 C4.58161358,11.1316872 3.64540895,10.8847761 2.78806584,10.3909465 C1.93072274,9.89711687 1.2551465,9.2318286 0.761316872,8.39506173 C0.253769753,7.53085988 0,6.59122593 0,5.57613169 C0,4.56103745 0.250340432,3.62483282 0.751028807,2.76748971 C1.25171718,1.9101466 1.93072274,1.23457037 2.78806584,0.740740741 C3.64540895,0.246911111 4.58161358,0 5.59670782,0 C6.61180206,0 7.55143601,0.253769753 8.41563786,0.761316872 C9.25240473,1.2551465 9.91426368,1.92729342 10.4012346,2.77777778 C10.8882055,3.62826214 11.1316872,4.56103745 11.1316872,5.57613169 C11.1316872,6.26200617 11.0185197,6.91700648 10.7921811,7.54115226 C10.5658425,8.16529805 10.240057,8.71741872 9.81481481,9.19753086 L10.0411523,9.44444444 L10.7407407,9.44444444 Z M5.59670782,9.44444444 C6.29629979,9.44444444 6.94101214,9.26954907 7.5308642,8.91975309 C8.12071626,8.5699571 8.58710391,8.10014012 8.93004115,7.51028807 C9.2729784,6.92043601 9.44444444,6.27572366 9.44444444,5.57613169 C9.44444444,4.87653971 9.2729784,4.23182737 8.93004115,3.64197531 C8.58710391,3.05212325 8.12071626,2.5857356 7.5308642,2.24279835 C6.94101214,1.89986111 6.29629979,1.72839506 5.59670782,1.72839506 C4.89711584,1.72839506 4.2524035,1.89986111 3.66255144,2.24279835 C3.07269938,2.5857356 2.60288241,3.05212325 2.25308642,3.64197531 C1.90329043,4.23182737 1.72839506,4.87653971 1.72839506,5.57613169 C1.72839506,6.27572366 1.90329043,6.92043601 2.25308642,7.51028807 C2.60288241,8.10014012 3.07269938,8.5699571 3.66255144,8.91975309 C4.2524035,9.26954907 4.89711584,9.44444444 5.59670782,9.44444444 Z"></path></symbol>

</svg>